<?xml version="1.0" standalone="no"?>
<!DOCTYPE svg PUBLIC "-//W3C//DTD SVG 1.1//EN" "http://www.w3.org/Graphics/SVG/1.1/DTD/svg11.dtd" >
<svg>
<metadata>
Created by FontForge 20090914 at Fri Mar 19 21:54:07 2021
 By www-data
Modern and elegant sans serif font family.
</metadata>
<defs>
<font id="Mont-Black" horiz-adv-x="1048" >
  <font-face 
    font-family="Mont Black"
    font-weight="950"
    font-stretch="normal"
    units-per-em="2048"
    panose-1="0 0 10 0 0 0 0 0 0 0"
    ascent="1638"
    descent="-410"
    x-height="1106"
    cap-height="1434"
    bbox="-80 -486.998 2175 1720"
    underline-thickness="102"
    underline-position="-612"
    unicode-range="U+0020-U+25FC"
  />
<missing-glyph horiz-adv-x="748" 
d="M68 0v1365h544v-1365h-544zM136 68h408v1229h-408v-1229z" />
    <glyph glyph-name=".notdef" horiz-adv-x="748" 
d="M68 0v1365h544v-1365h-544zM136 68h408v1229h-408v-1229z" />
    <glyph glyph-name="space" unicode=" " horiz-adv-x="397" 
 />
    <glyph glyph-name="exclam" unicode="!" horiz-adv-x="636" 
d="M123 477v998h393v-998h-393zM113 0v373h409v-373h-409z" />
    <glyph glyph-name="quotedbl" unicode="&#x22;" horiz-adv-x="1038" 
d="M92 885v553h354v-553h-354zM592 885v553h354v-553h-354z" />
    <glyph glyph-name="numbersign" unicode="#" horiz-adv-x="1353" 
d="M1288 813h-151l-28 -199h132v-335h-186l-41 -277h-355l41 277h-160l-44 -277h-357l45 277h-118v335h172l32 199h-157v326h209l45 295h356l-45 -295h152l44 295h355l-45 -295h104v-326zM759 614l28 199h-167l-32 -199h171z" />
    <glyph glyph-name="dollar" unicode="$" horiz-adv-x="1261" 
d="M1210 426c0 -117.333 -33.5 -214.505 -100.5 -291.505s-161.833 -128.5 -284.5 -154.5v-150h-376v148c-124.667 25.333 -221.167 77.333 -289.5 156s-102.5 178 -102.5 298h482c0 -28.667 8.5 -51.5 25.5 -68.5s39.167 -25.5 66.5 -25.5c26 0 47.167 6.83301 63.5 20.5
s24.5 32.167 24.5 55.5c0 22 -10.333 41.167 -31 57.5s-41.5 27.833 -62.5 34.5s-55.833 16.334 -104.5 29.001c-3.33301 0.666992 -5.66602 1.33398 -6.99902 2.00098l-65.5 16.5c-14.333 3.66699 -36 10.167 -65 19.5s-51.5 17.833 -67.5 25.5s-36.333 18.167 -61 31.5
s-44.334 27.166 -59.001 41.499s-30.5 32 -47.5 53s-30.167 43.333 -39.5 67s-17.166 51 -23.499 82s-9.5 64.167 -9.5 99.5c0 108.667 31.333 199 94 271s152 120.333 268 145v145h377v-148c110.667 -26 196 -74.833 256 -146.5s90 -161.167 90 -268.5l-463 -2
c0 22.667 -6.5 40.5 -19.5 53.5s-31.5 19.5 -55.5 19.5c-23.333 0 -41.833 -5.5 -55.5 -16.5s-20.5 -25.833 -20.5 -44.5c0 -10.667 2.16699 -20.5 6.5 -29.5s11.666 -17.167 21.999 -24.5s20.5 -13.666 30.5 -18.999s24.667 -11.166 44 -17.499s35.5 -11.333 48.5 -15
l57.5 -15.5c53.333 -14 94.833 -25.667 124.5 -35s68.667 -25.666 117 -48.999s85.5 -48.666 111.5 -75.999s49.333 -64.833 70 -112.5s31 -101.5 31 -161.5z" />
    <glyph glyph-name="percent" unicode="%" horiz-adv-x="2146" 
d="M475 700c-130 0 -234.5 37 -313.5 111s-118.5 171.667 -118.5 293s39.5 218.833 118.5 292.5s183.5 110.5 313.5 110.5s234.5 -36.833 313.5 -110.5s118.5 -171.167 118.5 -292.5s-39.5 -219 -118.5 -293s-183.5 -111 -313.5 -111zM414 -8l870 1444h422l-870 -1444h-422z
M475 993c32 0 58.5 10.3311 79.5 30.998s31.5 47.334 31.5 80.001c0 33.333 -10.5 60 -31.5 80s-47.5 30 -79.5 30c-32.667 0 -59.167 -10 -79.5 -30s-30.5 -46.667 -30.5 -80s10.167 -60.166 30.5 -80.499s46.833 -30.5 79.5 -30.5zM1669 -47.002
c-129.333 0 -233.666 37 -312.999 111s-119 171.333 -119 292s39.667 218.167 119 292.5s183.666 111.5 312.999 111.5s233.666 -37.167 312.999 -111.5s119 -171.833 119 -292.5s-39.667 -218 -119 -292s-183.666 -111 -312.999 -111zM1669 245.998
c33.333 0 60.166 10.166 80.499 30.499s30.5 46.833 30.5 79.5c0 34 -10.167 61 -30.5 81s-47.166 30 -80.499 30c-32.667 0 -59.167 -10.167 -79.5 -30.5s-30.5 -47.166 -30.5 -80.499s10.167 -60 30.5 -80s46.833 -30 79.5 -30z" />
    <glyph glyph-name="ampersand" unicode="&#x26;" horiz-adv-x="1392" 
d="M1427 0l-415 0.000976562l-35 36l-35 36c-124.667 -75.333 -261.334 -113 -410.001 -113c-141.333 0 -257.5 40.833 -348.5 122.5s-136.5 185.5 -136.5 311.5c0 86.667 22.667 161.667 68 225s107 121.666 185 174.999c-56 77.333 -94 141.833 -114 193.5
s-30 103.167 -30 154.5s8.66699 98.333 26 141s40.5 78.5 69.5 107.5s63.333 53.5 103 73.5s81.5 34.5 125.5 43.5s90 13.5 138 13.5c58.667 0 115 -7.66699 169 -23s103 -38 147 -68s79.167 -69.667 105.5 -119s39.5 -105 39.5 -167c0 -39.333 -5.5 -77 -16.5 -113
s-25.167 -67.833 -42.5 -95.5s-39.166 -55 -65.499 -82s-52.333 -50.5 -78 -70.5s-55.167 -40.667 -88.5 -62l132 -150c16.667 38.667 26.667 78 30 118h363c-4.66699 -146.667 -51 -280.667 -139 -402l136.5 -154zM618 1206c-23.333 0 -43 -7.33203 -59 -21.999
s-24 -36 -24 -64c0 -40.667 19 -90.334 57 -149.001c72 50 108 99.667 108 149c0 26.667 -8.33301 47.667 -25 63s-35.667 23 -57 23zM561 295.002c44.667 0 90 11.999 136 35.999l-185 203c-44 -42 -66 -84.667 -66 -128c0 -33.333 10.5 -60.166 31.5 -80.499
s48.833 -30.5 83.5 -30.5z" />
    <glyph glyph-name="quotesingle" unicode="'" horiz-adv-x="538" 
d="M92 885v553h354v-553h-354z" />
    <glyph glyph-name="parenleft" unicode="(" horiz-adv-x="804" 
d="M356 -371c-94 141.333 -167.002 298.669 -219.002 472.002s-78 355.333 -78 546c0 191.333 25.833 373.666 77.5 546.999s124.834 331.666 219.501 474.999h471c-40 -53.333 -78.667 -114.5 -116 -183.5s-72.833 -147 -106.5 -234s-60.5 -183.167 -80.5 -288.5
s-30 -210.666 -30 -315.999s9.83301 -210.333 29.5 -315s45.834 -200.334 78.501 -287.001s67.5 -164.667 104.5 -234s75.833 -130 116.5 -182h-467z" />
    <glyph glyph-name="parenright" unicode=")" horiz-adv-x="804" 
d="M449 -371h-467.001c40.667 52 79.5 112.667 116.5 182s71.833 147.333 104.5 234s58.834 182.334 78.501 287.001s29.5 209.667 29.5 315s-10.167 210.666 -30.5 315.999s-47.333 201.5 -81 288.5s-69 165 -106 234s-75.833 130.167 -116.5 183.5h472
c94 -142.667 166.833 -300.834 218.5 -474.501s77.5 -356.167 77.5 -547.5c0 -190.667 -25.833 -372.667 -77.5 -546s-124.5 -330.666 -218.5 -471.999z" />
    <glyph glyph-name="asterisk" unicode="*" horiz-adv-x="876" 
d="M827 1139l-157 -58l112 -129l-209 -180l-134 158l-134 -158l-209 180l108 129l-155 58l90 256l164 -58v185h270v-185l164 58z" />
    <glyph glyph-name="plus" unicode="+" horiz-adv-x="1107" 
d="M1059 838v-357h-316v-340h-378v340h-316v357h316v336h378v-336h316z" />
    <glyph glyph-name="comma" unicode="," horiz-adv-x="585" 
d="M102 -391l0.000976562 233c49.333 2.66699 88 18.167 116 46.5s42 65.5 42 111.5h-172v373h410v-338c0 -116.667 -36.333 -214 -109 -292s-168.334 -122.667 -287.001 -134z" />
    <glyph glyph-name="hyphen" unicode="-" 
d="M96 358v394h856v-394h-856z" />
    <glyph glyph-name="period" unicode="." horiz-adv-x="585" 
d="M88 0v373h410v-373h-410z" />
    <glyph glyph-name="slash" unicode="/" horiz-adv-x="1175" 
d="M33 -172l629 1731h479l-629 -1731h-479z" />
    <glyph glyph-name="zero" unicode="0" horiz-adv-x="1417" 
d="M709 -51c-194.667 0 -351.667 66.667 -471 200s-179 309 -179 527s59.667 393.667 179 527s276.333 200 471 200s351.5 -66.667 470.5 -200s178.5 -309 178.5 -527s-59.5 -393.667 -178.5 -527s-275.833 -200 -470.5 -200zM709 313c63.333 0 112.833 32.167 148.5 96.5
s53.5 153.166 53.5 266.499s-17.833 202 -53.5 266s-85.167 96 -148.5 96s-113 -32 -149 -96s-54 -152.667 -54 -266s18 -202.166 54 -266.499s85.667 -96.5 149 -96.5z" />
    <glyph glyph-name="one" unicode="1" horiz-adv-x="804" 
d="M43 1362h643v-1362h-442v1010h-201v352z" />
    <glyph glyph-name="two" unicode="2" horiz-adv-x="1193" 
d="M752 358l370 0.00292969v-358h-1081v106l410 491.5c82 101.667 138.333 177.5 169 227.5s46 91 46 123c0 28.667 -8.5 51.834 -25.5 69.501s-38.833 26.5 -65.5 26.5c-31.333 0 -55.5 -9.83301 -72.5 -29.5s-25.5 -47.834 -25.5 -84.501v-29h-418v21
c0 153.333 44.667 272.166 134 356.499s216 126.5 380 126.5c155.333 0 281 -39.833 377 -119.5s144 -183.834 144 -312.501c0 -64 -8.66699 -121 -26 -171s-49.5 -108.333 -96.5 -175s-120.167 -156.334 -219.5 -269.001z" />
    <glyph glyph-name="three" unicode="3" horiz-adv-x="1196" 
d="M825 864c96 -26 172.001 -75.667 228.001 -149s84 -162 84 -266c0 -144.667 -51 -262.5 -153 -353.5s-234 -136.5 -396 -136.5c-158.667 0 -287.167 44.833 -385.5 134.5s-149.5 208.167 -153.5 355.5h393c2 -45.333 16.5 -82 43.5 -110s61.833 -42 104.5 -42
s77.5 14 104.5 42s40.5 64.667 40.5 110s-13.833 81.5 -41.5 108.5s-64.834 40.5 -111.501 40.5h-234v98l200 318h-460v348h1008v-70z" />
    <glyph glyph-name="four" unicode="4" horiz-adv-x="1271" 
d="M1235 573v-344h-137v-229h-422v229h-666v82l428 1051h430l-320 -789h182l112 293h256v-293h137z" />
    <glyph glyph-name="five" unicode="5" horiz-adv-x="1198" 
d="M594 903c164.667 0 297.334 -42.335 398.001 -127.002s151 -196 151 -334c0 -145.333 -50.167 -262.166 -150.5 -350.499s-232.5 -132.5 -396.5 -132.5c-160.667 0 -290.334 45 -389.001 135s-148 208.333 -148 355h387c0 -44.667 14 -81.167 42 -109.5
s64 -42.5 108 -42.5c42.667 0 77.5 13.667 104.5 41s40.5 62 40.5 104c0 42.667 -13.833 77.334 -41.5 104.001s-63.5 40 -107.5 40h-471l-43 53l74 723h888v-348h-564l-12 -111h130z" />
    <glyph glyph-name="six" unicode="6" horiz-adv-x="1218" 
d="M707 934c143.333 0 260.334 -42.668 351.001 -128.001s136 -195.666 136 -330.999c0 -154.667 -52.167 -279.334 -156.5 -374.001s-241.833 -142 -412.5 -142c-168.667 0 -305.834 47.5 -411.501 142.5s-158.5 218.167 -158.5 369.5c0 82.667 14.5 165.834 43.5 249.501
s73.833 175.167 134.5 274.5l224 367h454l-132 -215l-132 -215c25.333 1.33301 45.333 2 60 2zM625.001 298.999c52 0 94.333 16.333 127 49s49 75 49 127s-16.333 94.667 -49 128s-75 50 -127 50s-94.333 -16.667 -127 -50s-49 -76 -49 -128s16.333 -94.333 49 -127
s75 -49 127 -49z" />
    <glyph glyph-name="seven" unicode="7" horiz-adv-x="1183" 
d="M37 1362h1128v-70l-516 -1292h-461l403 993h-554v369z" />
    <glyph glyph-name="eight" unicode="8" horiz-adv-x="1265" 
d="M1018 721c125.333 -79.333 188 -190.666 188 -333.999c0 -130 -52 -233.833 -156 -311.5s-243 -116.5 -417 -116.5s-313.167 38.833 -417.5 116.5s-156.5 181.5 -156.5 311.5c0 143.333 63 254.666 189 333.999c-98.667 83.333 -148 178.333 -148 285
c0 121.333 48.333 218.166 145 290.499s226 108.5 388 108.5s291.167 -36.167 387.5 -108.5s144.5 -169.166 144.5 -290.499c0 -107.333 -49 -202.333 -147 -285zM633 1114c-42 0 -75.333 -11.167 -100 -33.5s-37 -51.5 -37 -87.5s12.333 -65.167 37 -87.5
s58 -33.5 100 -33.5s75.333 11.167 100 33.5s37 51.5 37 87.5s-12.333 65.167 -37 87.5s-58 33.5 -100 33.5zM633 260c48.667 0 87.834 13.5 117.501 40.5s44.5 62.167 44.5 105.5s-14.833 78.333 -44.5 105s-68.834 40 -117.501 40s-87.834 -13.333 -117.501 -40
s-44.5 -61.667 -44.5 -105s14.833 -78.5 44.5 -105.5s68.834 -40.5 117.501 -40.5z" />
    <glyph glyph-name="nine" unicode="9" horiz-adv-x="1218" 
d="M594 1405c168.667 0 305.667 -47.5 411 -142.5s158 -218.167 158 -369.5c0 -82 -14.5 -164.667 -43.5 -248s-73.833 -175.333 -134.5 -276l-223 -369h-455l265 432c-25.333 -1.33301 -45.333 -2 -60 -2c-143.333 0 -260.333 42.667 -351 128s-136 195.666 -136 330.999
c0 154.667 52.167 279.334 156.5 374.001s241.833 142 412.5 142zM594 711c52 0 94.333 16.667 127 50s49 76 49 128s-16.333 94.333 -49 127s-75 49 -127 49s-94.333 -16.333 -127 -49s-49 -75 -49 -127s16.333 -94.667 49 -128s75 -50 127 -50z" />
    <glyph glyph-name="colon" unicode=":" horiz-adv-x="602" 
d="M96 733v373h410v-373h-410zM96 0v373h410v-373h-410z" />
    <glyph glyph-name="semicolon" unicode=";" horiz-adv-x="602" 
d="M96 733v373h410v-373h-410zM111 -391v233c48.667 2.66699 87 18.167 115 46.5s42 65.5 42 111.5h-172v373h410v-338c0 -116.667 -36.167 -214 -108.5 -292s-167.833 -122.667 -286.5 -134z" />
    <glyph glyph-name="less" unicode="&#x3c;" horiz-adv-x="1042" 
d="M924 1264v-447l-368 -162l368 -157v-447l-881 514v172z" />
    <glyph glyph-name="equal" unicode="=" horiz-adv-x="1122" 
d="M96 724v326h929v-326h-929zM96 266v325h929v-325h-929z" />
    <glyph glyph-name="greater" unicode="&#x3e;" horiz-adv-x="1042" 
d="M119 1264l880 -527v-172l-880 -514v447l367 157l-367 162v447z" />
    <glyph glyph-name="question" unicode="?" horiz-adv-x="1181" 
d="M369 457v30.001c0 48.667 4.83301 93.5 14.5 134.5s20.167 74 31.5 99s28.833 50.833 52.5 77.5s41.667 45.334 54 56.001s31.833 26.334 58.5 47.001c26 19.333 45.167 34.333 57.5 45s24.166 25.5 35.499 44.5s17 39.167 17 60.5c0 31.333 -9.83301 56.833 -29.5 76.5
s-45.167 29.5 -76.5 29.5c-33.333 0 -60.166 -9.83301 -80.499 -29.5s-30.5 -45.834 -30.5 -78.501h-432c0 146 48.5 260.333 145.5 343s229.5 124 397.5 124c170.667 0 304.334 -42.833 401.001 -128.5s145 -195.167 145 -328.5c0 -38 -4.83301 -73.833 -14.5 -107.5
s-20.334 -61.667 -32.001 -84s-29.167 -45.833 -52.5 -70.5s-42.333 -43.334 -57 -56.001s-35.667 -29.667 -63 -51c-24.667 -19.333 -43.667 -34.833 -57 -46.5s-27.833 -26.334 -43.5 -44.001s-27 -35.5 -34 -53.5s-10.5 -37.667 -10.5 -59v-30h-397zM360 0.000976562v373
h410v-373h-410z" />
    <glyph glyph-name="at" unicode="@" horiz-adv-x="2136" 
d="M1073 1493c144.667 0 279.501 -22.8369 404.501 -68.5039s231.667 -108.667 320 -189s157.666 -177.166 207.999 -290.499s75.5 -235.666 75.5 -366.999c0 -155.333 -40.833 -281 -122.5 -377s-188.5 -144 -320.5 -144c-70.667 0 -133.5 13.833 -188.5 41.5
s-97.833 66.834 -128.5 117.501c-82 -93.333 -187 -140 -315 -140c-139.333 0 -252 43.5 -338 130.5s-129 201.167 -129 342.5s43 255.5 129 342.5s198.667 130.5 338 130.5c122.667 0 224 -42.667 304 -128l38 52h172v-428c0 -45.333 10.167 -80.166 30.5 -104.499
s49.5 -36.5 87.5 -36.5c42 0 74.833 17.667 98.5 53s35.5 84.666 35.5 147.999c0 118 -29.167 223.667 -87.5 317s-140 166.166 -245 218.499s-223.833 78.5 -356.5 78.5c-137.333 0 -260.5 -27.333 -369.5 -82s-194 -131 -255 -229s-91.5 -208.667 -91.5 -332
c0 -121.333 27.667 -230.166 83 -326.499s132.666 -171.5 231.999 -225.5s211.333 -81 336 -81c103.333 0 207 21.333 311 64v-291c-123.333 -46.667 -244.666 -70 -363.999 -70c-128 0 -248.667 23.333 -362 70s-210.5 110.667 -291.5 192s-145 179.833 -192 295.5
s-70.5 239.834 -70.5 372.501c0 181.333 43.5 343.833 130.5 487.5s208.5 255.667 364.5 336s332.333 120.5 529 120.5zM1047 378.996c46.667 0 85.834 16.333 117.501 49s47.5 73 47.5 121s-15.833 88.333 -47.5 121s-70.834 49 -117.501 49s-86 -16.333 -118 -49
s-48 -73 -48 -121s16 -88.333 48 -121s71.333 -49 118 -49z" />
    <glyph glyph-name="A" unicode="A" horiz-adv-x="1585" 
d="M1075 0l-61 199h-456l-64 -199h-514l571 1434h479l576 -1434h-531zM926 532l-140 395l-140 -395h280z" />
    <glyph glyph-name="B" unicode="B" horiz-adv-x="1359" 
d="M1084 753c70 -34.667 125.667 -83.5 167 -146.5s62 -133.5 62 -211.5c0 -116.667 -44.333 -211.667 -133 -285s-204 -110 -346 -110h-721v1434h714c130 0 236.667 -34.167 320 -102.5s125 -155.833 125 -262.5c0 -64 -17 -123.833 -51 -179.5
s-79.667 -101.167 -137 -136.5zM827 987c0 30.667 -10.333 55.499 -31 74.499s-48.334 28.5 -83.001 28.5h-154v-205h154c34.667 0 62.334 9.33301 83.001 28s31 43.334 31 74.001zM723 349.999c37.333 0 67.5 9.99902 90.5 29.999s34.5 46.333 34.5 79
s-11.5 58.834 -34.5 78.501s-53.167 29.5 -90.5 29.5h-164v-217h164z" />
    <glyph glyph-name="C" unicode="C" horiz-adv-x="1642" 
d="M836 -41c-150.667 0 -286.336 32.5 -407.003 97.5s-214.834 155.333 -282.501 271s-101.5 245.5 -101.5 389.5s33.833 273.833 101.5 389.5s161.834 206 282.501 271s256.334 97.5 407.001 97.5c203.333 0 375 -59.833 515 -179.5s222.667 -276.5 248 -470.5h-487
c-20.667 64 -56 115.5 -106 154.5s-106 58.5 -168 58.5c-85.333 0 -154.166 -29.5 -206.499 -88.5s-78.5 -136.5 -78.5 -232.5c0 -95.333 26.333 -172.5 79 -231.5s121.334 -88.5 206.001 -88.5c66 0 124 21.5 174 64.5s82.667 99.5 98 169.5h494
c-22.667 -200 -104.667 -362 -246 -486s-315.333 -186 -522 -186z" />
    <glyph glyph-name="D" unicode="D" horiz-adv-x="1531" 
d="M727 1434c148.667 0 280.5 -30 395.5 -90s204.167 -144.333 267.5 -253s95 -233.334 95 -374.001c0 -211.333 -70.167 -383.666 -210.5 -516.999s-322.833 -200 -547.5 -200h-614v1434h614zM694 430c92.667 0 166.334 25.833 221.001 77.5s82 121.5 82 209.5
s-27.333 157.833 -82 209.5s-128.334 77.5 -221.001 77.5h-102v-574h102z" />
    <glyph glyph-name="E" unicode="E" horiz-adv-x="1179" 
d="M584 385h520v-385h-991v1434h981v-385h-510v-156h456v-352h-456v-156z" />
    <glyph glyph-name="F" unicode="F" horiz-adv-x="1153" 
d="M1087 1014h-491v-152h438v-403h-438v-459h-483v1434h974v-420z" />
    <glyph glyph-name="G" unicode="G" horiz-adv-x="1660" 
d="M799 780l819.002 0.000976562c0 -121.333 -18.833 -233.166 -56.5 -335.499s-90.334 -189 -158.001 -260s-150.167 -126.333 -247.5 -166s-204 -59.5 -320 -59.5c-152.667 0 -289 32.167 -409 96.5s-213.333 154.166 -280 269.499s-100 246 -100 392
s33.333 276.667 100 392s160 205.166 280 269.499s256.333 96.5 409 96.5c131.333 0 252.833 -25.167 364.5 -75.5s203.334 -120.5 275.001 -210.5s115.834 -192 132.501 -306h-506c-19.333 44.667 -53.833 81.334 -103.5 110.001s-103.834 43 -162.501 43
c-89.333 0 -161.166 -29.167 -215.499 -87.5s-81.5 -135.5 -81.5 -231.5c0 -96.667 27.167 -174.167 81.5 -232.5s126.166 -87.5 215.499 -87.5c61.333 0 115.166 12.167 161.499 36.5s78.166 57.166 95.499 98.499h-294v248z" />
    <glyph glyph-name="H" unicode="H" horiz-adv-x="1527" 
d="M932 1434h483v-1434h-483v508h-336v-508h-483v1434h483v-486h336v486z" />
    <glyph glyph-name="I" unicode="I" horiz-adv-x="712" 
d="M113 0v1434h487v-1434h-487z" />
    <glyph glyph-name="J" unicode="J" horiz-adv-x="1304" 
d="M610 -41c-176 0 -319.334 49.333 -430.001 148s-166 227 -166 385v55h488v-33c0 -34.667 10.333 -62.834 31 -84.501s46.334 -32.5 77.001 -32.5c31.333 0 57.333 10.833 78 32.5s31 49.834 31 84.501v920h487v-942c0 -157.333 -55.333 -285.5 -166 -384.5
s-254 -148.5 -430 -148.5z" />
    <glyph glyph-name="K" unicode="K" horiz-adv-x="1427" 
d="M1466 0h-557l-321 545v-545h-475v1434h475v-522l293 522h557l-451 -705z" />
    <glyph glyph-name="L" unicode="L" horiz-adv-x="1107" 
d="M600 430h477v-430h-964v1434h487v-1004z" />
    <glyph glyph-name="M" unicode="M" horiz-adv-x="2023" 
d="M1987 0h-476l-84 724l-333 -724h-164l-333 723l-81 -723h-479l211 1434h471l292 -690l296 690h471z" />
    <glyph glyph-name="N" unicode="N" horiz-adv-x="1574" 
d="M1008 1434h454v-1434h-389l-506 678v-678h-454v1434h403l492 -649v649z" />
    <glyph glyph-name="O" unicode="O" horiz-adv-x="1732" 
d="M866 -41c-121.333 0 -233 18.3311 -335 54.998s-188.5 87.834 -259.5 153.501s-126.167 145.5 -165.5 239.5s-59 197.333 -59 310s19.667 216 59 310s94.5 173.833 165.5 239.5s157.5 116.834 259.5 153.501s213.667 55 335 55c162.667 0 306 -31.333 430 -94
s220 -151.5 288 -266.5s102 -247.5 102 -397.5s-34 -282.5 -102 -397.5s-164 -203.833 -288 -266.5s-267.333 -94 -430 -94zM866 396.998c93.333 0 168.666 29.333 225.999 88s86 136 86 232s-28.667 173.167 -86 231.5s-132.666 87.5 -225.999 87.5
s-168.5 -29.167 -225.5 -87.5s-85.5 -135.5 -85.5 -231.5s28.5 -173.333 85.5 -232s132.167 -88 225.5 -88z" />
    <glyph glyph-name="P" unicode="P" horiz-adv-x="1376" 
d="M793 1434c162.667 0 296.167 -50.668 400.5 -152.001s156.5 -231.666 156.5 -390.999s-52.333 -290.333 -157 -393s-238 -154 -400 -154h-203v-344h-477v1434h680zM700 736.999c46 0 83.167 14 111.5 42s42.5 64.667 42.5 110s-14.167 81.833 -42.5 109.5
s-65.5 41.5 -111.5 41.5h-110v-303h110z" />
    <glyph glyph-name="Q" unicode="Q" horiz-adv-x="1732" 
d="M1753 -254l-536 -0.00195312l-176 227c-58 -9.33301 -116.333 -14 -175 -14c-121.333 0 -233 18.333 -335 55s-188.5 87.834 -259.5 153.501s-126.167 145.5 -165.5 239.5s-59 197.333 -59 310s19.667 216 59 310s94.5 173.833 165.5 239.5s157.5 116.834 259.5 153.501
s213.667 55 335 55c162.667 0 306 -31.333 430 -94s220 -151.5 288 -266.5s102 -247.5 102 -397.5c0 -118 -21.5 -225.5 -64.5 -322.5s-104.167 -179.167 -183.5 -246.5zM555 716.998c0 -96 28.5 -173.333 85.5 -232s132.167 -88 225.5 -88s168.666 29.333 225.999 88
s86 136 86 232s-28.667 173.167 -86 231.5s-132.666 87.5 -225.999 87.5s-168.5 -29.167 -225.5 -87.5s-85.5 -135.5 -85.5 -231.5z" />
    <glyph glyph-name="R" unicode="R" horiz-adv-x="1419" 
d="M870 0l-184 389h-98v-389h-475v1434h669c168 0 304.667 -50 410 -150s158 -231 158 -393c0 -82 -17.333 -156.167 -52 -222.5s-83.667 -121.833 -147 -166.5l250 -502h-531zM588 1026v-272h117c46.667 0 83.5 12.833 110.5 38.5s40.5 58.5 40.5 98.5
s-13.5 72.5 -40.5 97.5s-63.833 37.5 -110.5 37.5h-117z" />
    <glyph glyph-name="S" unicode="S" horiz-adv-x="1302" 
d="M651 -41c-188.667 0 -335.83 43.8379 -441.497 131.505s-158.5 209.167 -158.5 364.5h502c0 -31.333 8.83301 -56 26.5 -74s41.5 -27 71.5 -27c27.333 0 49.5 7.16699 66.5 21.5s25.5 33.833 25.5 58.5c0 17.333 -5 32.666 -15 45.999s-24.833 24.5 -44.5 33.5
s-40.5 17 -62.5 24s-48.667 14.5 -80 22.5c-2.66699 0.666992 -5 1.16699 -7 1.5s-4 0.833008 -6 1.5c-110 27.333 -190.667 54.333 -242 81c-134 69.333 -205.667 182.333 -215 339c-0.666992 12 -1 24.333 -1 37c0 142.667 50.167 254.167 150.5 334.5
s240.5 120.5 420.5 120.5c176.667 0 314.667 -41.167 414 -123.5s149 -196.833 149 -343.5h-483c0 27.333 -7 48.5 -21 63.5s-33.667 22.5 -59 22.5c-24.667 0 -43.834 -5.83301 -57.501 -17.5s-20.5 -27.834 -20.5 -48.501c0 -16 4.66699 -30.167 14 -42.5
s25.333 -23.666 48 -33.999s43 -18.333 61 -24s45.667 -13.5 83 -23.5c4.66699 -1.33301 8.33398 -2.33301 11.001 -3c55.333 -14.667 98.666 -26.834 129.999 -36.501s72.166 -26.834 122.499 -51.501s89.166 -51.334 116.499 -80.001s51.833 -67.834 73.5 -117.501
s32.5 -106.167 32.5 -169.5c0 -153.333 -53.167 -272.833 -159.5 -358.5s-254.5 -128.5 -444.5 -128.5z" />
    <glyph glyph-name="T" unicode="T" horiz-adv-x="1310" 
d="M1282 1434v-416h-387v-1018h-479v1018h-387v416h1253z" />
    <glyph glyph-name="U" unicode="U" horiz-adv-x="1519" 
d="M760 -41c-199.333 0 -359.836 55.833 -481.503 167.5s-182.5 260.5 -182.5 446.5v861h496v-863c0 -51.333 15.333 -93.166 46 -125.499s71.334 -48.5 122.001 -48.5s91.334 16.167 122.001 48.5s46 74.166 46 125.499v863h495v-861c0 -186 -60.667 -334.833 -182 -446.5
s-281.666 -167.5 -480.999 -167.5z" />
    <glyph glyph-name="V" unicode="V" horiz-adv-x="1533" 
d="M991 1434h559l-565 -1434h-436l-565 1434h559l225 -760z" />
    <glyph glyph-name="W" unicode="W" horiz-adv-x="2166" 
d="M1659 1434h516l-444 -1434h-414l-234 596l-233 -596h-414l-446 1434h516l186 -704l305 704h172l307 -707z" />
    <glyph glyph-name="X" unicode="X" horiz-adv-x="1454" 
d="M1473 0h-543l-202 397l-202 -397h-544l421 737l-401 697h539l186 -383l186 383h539l-399 -697z" />
    <glyph glyph-name="Y" unicode="Y" horiz-adv-x="1476" 
d="M1481 1434l-502 -899v-535h-481v534l-500 900h549l192 -444l193 444h549z" />
    <glyph glyph-name="Z" unicode="Z" horiz-adv-x="1277" 
d="M729 444h504v-444h-1194v127l477 862h-442v445h1134v-127z" />
    <glyph glyph-name="bracketleft" unicode="[" horiz-adv-x="768" 
d="M119 -369v2038h602v-313h-229v-1407h233v-318h-606z" />
    <glyph glyph-name="backslash" unicode="\" horiz-adv-x="1175" 
d="M1143 -172h-479l-629 1731h479z" />
    <glyph glyph-name="bracketright" unicode="]" horiz-adv-x="768" 
d="M649 -369h-606v318h233v1407h-229v313h602v-2038z" />
    <glyph glyph-name="asciicircum" unicode="^" horiz-adv-x="1204" 
d="M41 694l465 744h192l465 -744h-436l-125 262l-125 -262h-436z" />
    <glyph glyph-name="underscore" unicode="_" horiz-adv-x="1097" 
d="M0 -453v365h1098v-365h-1098z" />
    <glyph glyph-name="grave" unicode="`" horiz-adv-x="913" 
d="M756 1231h-328l-250 377h449z" />
    <glyph glyph-name="a" unicode="a" horiz-adv-x="1427" 
d="M987 1106l344 0.000976562v-1106h-352l-37 68c-91.333 -72.667 -199.333 -109 -324 -109c-172 0 -311.167 54.667 -417.5 164s-159.5 252.666 -159.5 429.999c0 176.667 53.167 319.167 159.5 427.5s245.5 162.5 417.5 162.5c124 0 232.667 -37.333 326 -112z
M500 551.001c0 -60.667 19 -111 57 -151s86.333 -60 145 -60s107.167 20 145.5 60s57.5 90.333 57.5 151c0 60 -19.167 109.833 -57.5 149.5s-86.833 59.5 -145.5 59.5c-59.333 0 -107.833 -19.833 -145.5 -59.5s-56.5 -89.5 -56.5 -149.5z" />
    <glyph glyph-name="b" unicode="b" horiz-adv-x="1425" 
d="M809 1143c172 0 311.167 -54.5 417.5 -163.5s159.5 -251.833 159.5 -428.5s-53.167 -319.5 -159.5 -428.5s-245.5 -163.5 -417.5 -163.5c-129.333 0 -241.333 41 -336 123l-35 -82h-342v1505h449v-434c80.667 48 168.667 72 264 72zM725 340
c57.333 0 105.5 20.167 144.5 60.5s58.5 90.5 58.5 150.5c0 60.667 -19.167 111 -57.5 151s-86.833 60 -145.5 60s-107.167 -20 -145.5 -60s-57.5 -90.333 -57.5 -151s19.167 -111 57.5 -151s86.833 -60 145.5 -60z" />
    <glyph glyph-name="c" unicode="c" horiz-adv-x="1329" 
d="M680 -41c-191.333 0 -345.671 54.167 -463.004 162.5s-176 251.5 -176 429.5s58.667 321.167 176 429.5s271.666 162.5 462.999 162.5c168.667 0 308.834 -48.167 420.501 -144.5s174.834 -223.166 189.501 -380.499h-438c-7.33301 37.333 -27.333 68.666 -60 93.999
s-70 38 -112 38c-56.667 0 -101.5 -17.833 -134.5 -53.5s-49.5 -84.167 -49.5 -145.5s16.5 -109.833 49.5 -145.5s77.833 -53.5 134.5 -53.5c44 0 82.833 13.667 116.5 41s52.834 61 57.501 101h440c-17.333 -160.667 -82.166 -290 -194.499 -388
s-252.166 -147 -419.499 -147z" />
    <glyph glyph-name="d" unicode="d" horiz-adv-x="1425" 
d="M881 1505l448 0.00195312v-1505h-342l-35 82c-94.667 -82 -206.667 -123 -336 -123c-172 0 -311.167 54.667 -417.5 164s-159.5 252.666 -159.5 429.999s53.167 320.666 159.5 429.999s245.5 164 417.5 164c96 0 184.333 -24 265 -72v430zM700 340.002
c58 0 106.333 20.333 145 61s58 91.334 58 152.001s-19.333 111.334 -58 152.001s-87 61 -145 61s-106.167 -20.333 -144.5 -61s-57.5 -91.334 -57.5 -152.001s19.167 -111.334 57.5 -152.001s86.5 -61 144.5 -61z" />
    <glyph glyph-name="e" unicode="e" horiz-adv-x="1351" 
d="M1315 569c0 -31.333 -3.33105 -68.667 -9.99805 -112h-828c24.667 -108 90.334 -162 197.001 -162c41.333 0 78.166 7.5 110.499 22.5s56.166 36.167 71.499 63.5h432c-38.667 -131.333 -112.834 -234.5 -222.501 -309.5s-240.167 -112.5 -391.5 -112.5
c-121.333 0 -230.333 25.5 -327 76.5s-172.167 121.833 -226.5 212.5s-81.5 193 -81.5 307c0 172.667 59.5 314.5 178.5 425.5s271.167 166.5 456.5 166.5c93.333 0 179.833 -14.5 259.5 -43.5s147.5 -69 203.5 -120s99.667 -112.167 131 -183.5s47 -148.333 47 -231z
M674.002 812.999c-102 0 -166.333 -48.333 -193 -145h390c-11.333 46.667 -34 82.5 -68 107.5s-77 37.5 -129 37.5z" />
    <glyph glyph-name="f" unicode="f" horiz-adv-x="913" 
d="M897 1085v-344.001h-223v-741h-459v741h-178l-2 344h188v111c0 238.667 121.667 358 365 358h307v-344h-166c-23.333 0 -41.5 -6.66699 -54.5 -20s-19.5 -31.666 -19.5 -54.999v-50h242z" />
    <glyph glyph-name="g" unicode="g" horiz-adv-x="1398" 
d="M979 1106l324.001 -0.000976562v-983c0 -176 -56.333 -315.667 -169 -419s-264.667 -155 -456 -155c-162.667 0 -297 38.333 -403 115s-172.333 182.667 -199 318h430c10 -24.667 30.833 -44.5 62.5 -59.5s68.167 -22.5 109.5 -22.5c58 0 104.5 16.667 139.5 50
s52.5 78 52.5 134v25c-85.333 -50.667 -176.666 -76 -273.999 -76c-164 0 -297.5 51.5 -400.5 154.5s-154.5 237.167 -154.5 402.5c0 162.667 51.667 295.834 155 399.501s236.666 155.5 399.999 155.5c127.333 0 240.666 -41 339.999 -123zM692.001 382.999
c58.667 0 106.5 19.333 143.5 58s55.5 88.334 55.5 149.001s-18.833 110.334 -56.5 149.001s-85.167 58 -142.5 58c-58.667 0 -106.667 -19.333 -144 -58s-56 -88.334 -56 -149.001s18.667 -110.334 56 -149.001s85.333 -58 144 -58z" />
    <glyph glyph-name="h" unicode="h" horiz-adv-x="1331" 
d="M809 1147c131.333 0 237.167 -45.168 317.5 -135.501s120.5 -209.166 120.5 -356.499v-655h-459v621c0 46 -9.16699 81.667 -27.5 107s-44.5 38 -78.5 38c-40 0 -71.167 -14 -93.5 -42s-33.5 -66.667 -33.5 -116v-608h-459v1505h459v-443c81.333 56.667 166 85 254 85z
" />
    <glyph glyph-name="i" unicode="i" horiz-adv-x="651" 
d="M100 1243v365h451v-365h-451zM96 0v1106h459v-1106h-459z" />
    <glyph glyph-name="j" unicode="j" horiz-adv-x="675" 
d="M125 1243v365h450v-365h-450zM-80 -451v390h82c38 0 67.333 12.167 88 36.5s31 58.5 31 102.5v1028h459v-1069c0 -166 -43.5 -288.833 -130.5 -368.5s-220.5 -119.5 -400.5 -119.5h-129z" />
    <glyph glyph-name="k" unicode="k" horiz-adv-x="1265" 
d="M1296 0h-530l-211 399v-399h-459v1505h459v-769l207 370h508l-325 -529z" />
    <glyph glyph-name="l" unicode="l" horiz-adv-x="651" 
d="M96 0v1505h459v-1505h-459z" />
    <glyph glyph-name="m" unicode="m" horiz-adv-x="1933" 
d="M1448 1147c122.667 0 220.169 -42.001 292.502 -126.001s108.5 -191.667 108.5 -323v-698h-458v651c0 82 -29.333 123 -88 123c-71.333 0 -107 -51 -107 -153v-621h-446v651c0 38.667 -8 68.834 -24 90.501s-38.333 32.5 -67 32.5c-32.667 0 -58.167 -13.5 -76.5 -40.5
s-27.5 -64.5 -27.5 -112.5v-621h-459v1106h326l44 -98c87.333 92.667 194 139 320 139c65.333 0 125.5 -13.5 180.5 -40.5s100.833 -64.833 137.5 -113.5c43.333 48.667 94.666 86.5 153.999 113.5s122.666 40.5 189.999 40.5z" />
    <glyph glyph-name="n" unicode="n" horiz-adv-x="1331" 
d="M795 1147c133.333 0 242 -43.167 326 -129.5s126 -199.5 126 -339.5v-678h-459v621c0 46 -9.16699 81.667 -27.5 107s-44.5 38 -78.5 38c-40 0 -71.167 -14 -93.5 -42s-33.5 -66.667 -33.5 -116v-608h-459v1106h330l39 -89c82.667 86.667 192.667 130 330 130z" />
    <glyph glyph-name="o" unicode="o" horiz-adv-x="1372" 
d="M686 -41c-191.333 0 -347 55 -467 165s-180 253 -180 429s60 319 180 429s275.667 165 467 165s347 -55 467 -165s180 -253 180 -429s-60 -319 -180 -429s-275.667 -165 -467 -165zM686 354c56 0 102.167 18.667 138.5 56s54.5 85 54.5 143
c0 57.333 -18.333 104.833 -55 142.5s-82.667 56.5 -138 56.5c-56 0 -102 -18.667 -138 -56s-54 -85 -54 -143s18 -105.667 54 -143s82 -56 138 -56z" />
    <glyph glyph-name="p" unicode="p" horiz-adv-x="1413" 
d="M797 1147c172 0 311.167 -54.5 417.5 -163.5s159.5 -252.5 159.5 -430.5s-53.167 -321.5 -159.5 -430.5s-245.5 -163.5 -417.5 -163.5c-90.667 0 -174.667 21.333 -252 64v-422h-449v1505h322l42 -84c94.667 83.333 207 125 337 125zM713 340
c58 0 106.167 20.167 144.5 60.5s57.5 91.166 57.5 152.499s-19 112.166 -57 152.499s-86.333 60.5 -145 60.5s-107.167 -20.167 -145.5 -60.5s-57.5 -91.166 -57.5 -152.499s19.167 -112.166 57.5 -152.499s86.833 -60.5 145.5 -60.5z" />
    <glyph glyph-name="q" unicode="q" horiz-adv-x="1413" 
d="M997 1106l319.999 0.00195312v-1505h-449v422c-77.333 -42.667 -161.333 -64 -252 -64c-172 0 -311.167 54.667 -417.5 164s-159.5 252.666 -159.5 429.999s53.167 320.666 159.5 429.999s245.5 164 417.5 164c130.667 0 243.334 -42 338.001 -126zM699.999 340.002
c58 0 106.333 20.333 145 61s58 91.334 58 152.001s-19.333 111.334 -58 152.001s-87 61 -145 61s-106.167 -20.333 -144.5 -61s-57.5 -91.334 -57.5 -152.001s19.333 -111.334 58 -152.001s86.667 -61 144 -61z" />
    <glyph glyph-name="r" unicode="r" horiz-adv-x="894" 
d="M772 1110h105v-408h-168c-49.333 0 -87.333 -12.833 -114 -38.5s-40 -62.5 -40 -110.5v-553h-459v1106h324l61 -113c72.667 78 169.667 117 291 117z" />
    <glyph glyph-name="s" unicode="s" horiz-adv-x="1114" 
d="M557 -41c-162 0 -287.169 35.168 -375.502 105.501s-134.5 166.833 -138.5 289.5h436c0 -30.667 7.83301 -53.667 23.5 -69s33.834 -23 54.501 -23c19.333 0 35.833 5.83301 49.5 17.5s20.5 27.834 20.5 48.501c0 12 -3.33301 22.5 -10 31.5s-14.334 16.333 -23.001 22
s-22.167 11 -40.5 16s-34 8.66699 -47 11s-32.167 5.5 -57.5 9.5c-28.667 4.66699 -53.834 9.33398 -75.501 14.001s-47 11.5 -76 20.5s-54.167 19.167 -75.5 30.5s-43.166 26.166 -65.499 44.499s-40.666 38.833 -54.999 61.5s-26 50 -35 82s-13.5 67 -13.5 105
c0 115.333 45.667 206 137 272s213 99 365 99c147.333 0 265.5 -33.833 354.5 -101.5s136.167 -158.167 141.5 -271.5h-424c0 26 -7.16699 45.833 -21.5 59.5s-31.166 20.5 -50.499 20.5c-18 0 -33.5 -5.16699 -46.5 -15.5s-19.5 -25.5 -19.5 -45.5
c0 -9.33301 1.83301 -17.833 5.5 -25.5s10.334 -14.334 20.001 -20.001s18.667 -10.5 27 -14.5s21 -7.83301 38 -11.5s30.833 -6.5 41.5 -8.5s27 -4.66699 49 -8c98 -16.667 168.333 -34 211 -52c118 -48.667 181.667 -139 191 -271c0.666992 -12 1 -24 1 -36
c0 -116.667 -47.333 -210.334 -142 -281.001s-219.334 -106 -374.001 -106z" />
    <glyph glyph-name="t" unicode="t" horiz-adv-x="964" 
d="M754 397h155.001v-397h-309c-122.667 0 -218.834 35 -288.501 105s-104.5 166.667 -104.5 290v367h-205v112l551 588h98v-356h252v-344h-237v-277c0 -26.667 8 -48 24 -64s37.333 -24 64 -24z" />
    <glyph glyph-name="u" unicode="u" horiz-adv-x="1306" 
d="M653 -41c-172 0 -310.167 47.5 -414.5 142.5s-156.5 222.833 -156.5 383.5v621h459v-629c0 -38.667 10 -68.834 30 -90.501s47.333 -32.5 82 -32.5s62.167 10.833 82.5 32.5s30.5 51.834 30.5 90.501v629h459v-621c0 -160.667 -52.333 -288.5 -157 -383.5
s-243 -142.5 -415 -142.5z" />
    <glyph glyph-name="v" unicode="v" horiz-adv-x="1300" 
d="M809 1106h504l-459 -1106h-408l-458 1106h514l153 -575z" />
    <glyph glyph-name="w" unicode="w" horiz-adv-x="1812" 
d="M1331 1106h484l-345 -1106h-370l-193 438l-188 -438h-371l-356 1106h495l116 -509l237 509h123l254 -520z" />
    <glyph glyph-name="x" unicode="x" horiz-adv-x="1267" 
d="M1298 0h-505l-158 299l-158 -299h-508l363 584l-330 522h494l139 -245l139 245h494l-329 -521z" />
    <glyph glyph-name="y" unicode="y" horiz-adv-x="1310" 
d="M831 1106h497.999l-450 -1026c-84 -190.667 -173.667 -323 -269 -397s-224.333 -111 -387 -111h-135v377h102c72.667 0 126.334 10.667 161.001 32s63 60 85 116l-448 1009h497l178 -545z" />
    <glyph glyph-name="z" unicode="z" horiz-adv-x="1091" 
d="M649 395h391v-395h-997v86l387 625h-362v395h962v-88z" />
    <glyph glyph-name="braceleft" unicode="{" horiz-adv-x="833" 
d="M604 936c0 -61.333 -14.333 -115.668 -43 -163.001s-68.667 -80.666 -120 -99.999c50 -19.333 89 -52.5 117 -99.5s42 -101.5 42 -163.5v-435h168v-325h-297c-74 0 -137.167 26 -189.5 78s-78.5 115.333 -78.5 190v510c0 30.667 -11 56.834 -33 78.501
s-48.667 32.5 -80 32.5h-47v266h47c31.333 0 58 11 80 33s33 48.667 33 80v509c0 73.333 26.333 136.166 79 188.499s115.667 78.5 189 78.5h297v-324h-164v-434z" />
    <glyph glyph-name="bar" unicode="|" horiz-adv-x="686" 
d="M121 -389v2109h444v-2109h-444z" />
    <glyph glyph-name="braceright" unicode="}" horiz-adv-x="833" 
d="M743 805l48 0.00195312v-266h-48c-31.333 0 -57.833 -10.833 -79.5 -32.5s-32.5 -47.834 -32.5 -78.501v-510c0 -74.667 -26.333 -138 -79 -190s-116 -78 -190 -78h-296v325h167v435c0 62 14 116.5 42 163.5s67 80.167 117 99.5
c-51.333 19.333 -91.333 52.666 -120 99.999s-43 101.666 -43 162.999v434h-163v324h296c73.333 0 136.5 -26.167 189.5 -78.5s79.5 -115.166 79.5 -188.499v-509c0 -31.333 10.833 -58 32.5 -80s48.167 -33 79.5 -33z" />
    <glyph glyph-name="asciitilde" unicode="~" horiz-adv-x="1191" 
d="M788 457c-82.667 0 -165.003 26.6621 -247.003 79.9951c-49.333 25.333 -83.666 38 -102.999 38c-23.333 0 -41.333 -7.33301 -54 -22s-19 -35 -19 -61v-31h-293v37c0 112.667 29.167 201.834 87.5 267.501s142.5 98.5 252.5 98.5c34 0 66.833 -4.33301 98.5 -13
s55 -16.834 70 -24.501s35.833 -19.5 62.5 -35.5c5.33301 -3.33301 9.33301 -5.66602 12 -6.99902c2 -1.33301 6.5 -4.16602 13.5 -8.49902s11.5 -7.16602 13.5 -8.49902s6.16699 -3.66602 12.5 -6.99902l13.5 -7c2.66699 -1.33301 6.66699 -3.16602 12 -5.49902
s9.83301 -4 13.5 -5s7.83398 -1.83301 12.501 -2.5s9.33398 -1 14.001 -1c47.333 0 71 29.333 71 88v35h295v-37c0 -115.333 -30 -205.5 -90 -270.5s-142.667 -97.5 -248 -97.5z" />
    <glyph glyph-name="uni00A0" unicode="&#xa0;" horiz-adv-x="397" 
 />
    <glyph glyph-name="cent" unicode="&#xa2;" horiz-adv-x="1314" 
d="M1266 473c-12.667 -120.667 -55.8311 -223.667 -129.498 -309s-167.834 -143 -282.501 -173v-161h-377v164c-127.333 34 -227.666 97.833 -300.999 191.5s-110 207.167 -110 340.5c0 134 36.667 248.167 110 342.5s173.666 158.5 300.999 192.5v186h377v-183
c115.333 -30 209.333 -86.5 282 -169.5s114.667 -183.833 126 -302.5h-420c-6.66699 34.667 -25.834 63.834 -57.501 87.501s-67.167 35.5 -106.5 35.5c-54.667 0 -97.667 -16.833 -129 -50.5s-47 -79.834 -47 -138.501c0 -58 15.667 -103.833 47 -137.5
s74.333 -50.5 129 -50.5c42 0 78.833 13 110.5 39s50.167 58 55.5 96h422z" />
    <glyph glyph-name="sterling" unicode="&#xa3;" horiz-adv-x="1282" 
d="M870 453l349 -0.00195312v-453h-1153v219l122 77v241h-106v272h106v172c0 128.667 45.833 230.834 137.5 306.501s215.834 113.5 372.501 113.5c151.333 0 271.166 -37.667 359.499 -113s132.5 -177.666 132.5 -306.999v-25h-383v35c0 34 -10.333 61.333 -31 82
s-46.667 31 -78 31c-32 0 -58.333 -10.167 -79 -30.5s-31 -47.833 -31 -82.5v-182h229v-272h-229v-220h282v136z" />
    <glyph glyph-name="yen" unicode="&#xa5;" horiz-adv-x="1482" 
d="M1442 1362l-408 -668h246v-235h-328v-92h328v-215h-328v-152h-422v152h-327v215h327v92h-327v235h243l-405 668h477l223 -450l224 450h477z" />
    <glyph glyph-name="dieresis" unicode="&#xa8;" horiz-adv-x="1368" 
d="M344 1245v352h350v-352h-350zM913 1245v352h351v-352h-351z" />
    <glyph glyph-name="copyright" unicode="&#xa9;" horiz-adv-x="1716" 
d="M858 -41c-148.667 0 -284 31.833 -406 95.5s-218.667 153.334 -290 269.001s-107 246.167 -107 391.5s35.667 276.166 107 392.499s168 206.666 290 270.999s257.333 96.5 406 96.5s284 -32.167 406 -96.5s218.667 -154.666 290 -270.999s107 -247.166 107 -392.499
s-35.667 -275.833 -107 -391.5s-168 -205.334 -290 -269.001s-257.333 -95.5 -406 -95.5zM858 182c164 0 298.167 49.833 402.5 149.5s156.5 227.5 156.5 383.5s-52.333 284.667 -157 386s-238.667 152 -402 152s-297.333 -50.667 -402 -152s-157 -230 -157 -386
s52.167 -283.833 156.5 -383.5s238.5 -149.5 402.5 -149.5zM866 319c-130 0 -234.501 36.668 -313.501 110.001s-118.5 170 -118.5 290s39.5 216.5 118.5 289.5s183.5 109.5 313.5 109.5c114.667 0 209.834 -32.333 285.501 -97s118.5 -150.334 128.5 -257.001h-297
c-4.66699 25.333 -18.5 46.333 -41.5 63s-48.167 25 -75.5 25c-38 0 -68.333 -12 -91 -36s-34 -56.333 -34 -97s11.333 -73 34 -97s53 -36 91 -36c29.333 0 55.5 8.83301 78.5 26.5s36.5 40.167 40.5 67.5h297c-12.667 -108.667 -57 -196 -133 -262s-170.333 -99 -283 -99z
" />
    <glyph glyph-name="guillemotleft" unicode="&#xab;" horiz-adv-x="1581" 
d="M371 68l-322 460v37l322 461h481l-328 -479l328 -479h-481zM1055 68l-322 460v37l322 461h481l-328 -479l328 -479h-481z" />
    <glyph glyph-name="uni00AD" unicode="&#xad;" 
d="M96 358v394h856v-394h-856z" />
    <glyph glyph-name="registered" unicode="&#xae;" horiz-adv-x="1077" 
d="M539 1473c142 0 256.333 -43.667 343 -131s130 -202.333 130 -345s-43.167 -257.5 -129.5 -344.5s-200.833 -130.5 -343.5 -130.5s-257.167 43.5 -343.5 130.5s-129.5 201.833 -129.5 344.5s43.333 257.667 130 345s201 131 343 131zM539 684c94 0 169.333 28.667 226 86
s85 133 85 227s-28.333 169.833 -85 227.5s-132 86.5 -226 86.5s-169.5 -28.833 -226.5 -86.5s-85.5 -133.5 -85.5 -227.5s28.5 -169.667 85.5 -227s132.5 -86 226.5 -86zM737 1053c0 -51.333 -19 -90.667 -57 -118l70 -142h-160l-53 112h-31v-112h-146v417h220
c48 0 86.167 -14.333 114.5 -43s42.5 -66.667 42.5 -114zM506 1092v-80h35c14 0 25 3.83301 33 11.5s12 17.5 12 29.5s-4 21.5 -12 28.5s-19 10.5 -33 10.5h-35z" />
    <glyph glyph-name="acute" unicode="&#xb4;" horiz-adv-x="933" 
d="M178 1231l129 377h449l-250 -377h-328z" />
    <glyph glyph-name="cedilla" unicode="&#xb8;" horiz-adv-x="1228" 
d="M415 -77c66 -4.66699 118.5 -25.166 157.5 -61.499s58.5 -83.166 58.5 -140.499c0 -63.333 -22.667 -113.833 -68 -151.5s-106 -56.5 -182 -56.5h-197v172h146c17.333 0 31.166 4.66699 41.499 14s15.5 21.666 15.5 36.999s-5.16699 27.666 -15.5 36.999
s-24.166 14 -41.499 14h-101l-26 35l80 293h184z" />
    <glyph glyph-name="guillemotright" unicode="&#xbb;" horiz-adv-x="1581" 
d="M526 68h-481l328 479l-328 479h481l322 -461v-37zM1210 68h-481l328 479l-328 479h481l322 -461v-37z" />
    <glyph glyph-name="circumflex" unicode="&#x2c6;" horiz-adv-x="1228" 
d="M1128 1231h-325l-157 179l-154 -179h-326l256 377h448z" />
    <glyph glyph-name="ring" unicode="&#x2da;" horiz-adv-x="1228" 
d="M489 1184c-80.667 0 -147.5 24.5 -200.5 73.5s-79.5 112.5 -79.5 190.5s26.5 141.5 79.5 190.5s119.833 73.5 200.5 73.5s147.667 -24.5 201 -73.5s80 -112.5 80 -190.5s-26.667 -141.5 -80 -190.5s-120.333 -73.5 -201 -73.5zM489 1352
c28.667 0 52.334 9.16699 71.001 27.5s28 41.166 28 68.499s-9.33301 50.166 -28 68.499s-42.334 27.5 -71.001 27.5s-52.167 -9.16699 -70.5 -27.5s-27.5 -41.166 -27.5 -68.499s9.16699 -50.166 27.5 -68.499s41.833 -27.5 70.5 -27.5z" />
    <glyph glyph-name="tilde" unicode="&#x2dc;" horiz-adv-x="1228" 
d="M768 1245c-64 0 -133.667 22 -209 66c-40.667 23.333 -70.667 35 -90 35c-20 0 -35.5 -6.5 -46.5 -19.5s-16.5 -30.5 -16.5 -52.5v-27h-250v31c0 96.667 24.833 173 74.5 229s121.5 84 215.5 84c61.333 0 130.333 -22.333 207 -67c43.333 -24.667 73.333 -37 90 -37
c41.333 0 62 24.667 62 74v28h252v-30c0 -98 -25.667 -174.833 -77 -230.5s-122 -83.5 -212 -83.5z" />
    <glyph glyph-name="uni2000" unicode="&#x2000;" horiz-adv-x="860" 
 />
    <glyph glyph-name="uni2001" unicode="&#x2001;" horiz-adv-x="1720" 
 />
    <glyph glyph-name="uni2002" unicode="&#x2002;" horiz-adv-x="860" 
 />
    <glyph glyph-name="uni2003" unicode="&#x2003;" horiz-adv-x="1720" 
 />
    <glyph glyph-name="uni2004" unicode="&#x2004;" horiz-adv-x="573" 
 />
    <glyph glyph-name="uni2005" unicode="&#x2005;" horiz-adv-x="430" 
 />
    <glyph glyph-name="uni2006" unicode="&#x2006;" horiz-adv-x="286" 
 />
    <glyph glyph-name="uni2007" unicode="&#x2007;" horiz-adv-x="286" 
 />
    <glyph glyph-name="uni2008" unicode="&#x2008;" horiz-adv-x="215" 
 />
    <glyph glyph-name="uni2009" unicode="&#x2009;" horiz-adv-x="344" 
 />
    <glyph glyph-name="uni200A" unicode="&#x200a;" horiz-adv-x="95" 
 />
    <glyph glyph-name="uni2010" unicode="&#x2010;" 
d="M96 358v394h856v-394h-856z" />
    <glyph glyph-name="uni2011" unicode="&#x2011;" 
d="M96 358v394h856v-394h-856z" />
    <glyph glyph-name="figuredash" unicode="&#x2012;" 
d="M96 358v394h856v-394h-856z" />
    <glyph glyph-name="endash" unicode="&#x2013;" horiz-adv-x="1220" 
d="M96 358v394h1028v-394h-1028z" />
    <glyph glyph-name="emdash" unicode="&#x2014;" horiz-adv-x="1476" 
d="M96 358v394h1284v-394h-1284z" />
    <glyph glyph-name="quoteleft" unicode="&#x2018;" horiz-adv-x="573" 
d="M471 1559v-234c-49.333 -3.33301 -88 -19 -116 -47s-42 -65 -42 -111h172v-372h-409v338c0 116.667 36.167 214 108.5 292s167.833 122.667 286.5 134z" />
    <glyph glyph-name="quoteright" unicode="&#x2019;" horiz-adv-x="563" 
d="M104 676l0.000976562 233c48.667 3.33301 87.167 19 115.5 47s42.5 65 42.5 111h-172v373h410v-338c0 -116.667 -36.333 -214 -109 -292s-168.334 -122.667 -287.001 -134z" />
    <glyph glyph-name="quotesinglbase" unicode="&#x201a;" horiz-adv-x="585" 
d="M102 -391l0.000976562 233c49.333 2.66699 88 18.167 116 46.5s42 65.5 42 111.5h-172v373h410v-338c0 -116.667 -36.333 -214 -109 -292s-168.334 -122.667 -287.001 -134z" />
    <glyph glyph-name="quotedblleft" unicode="&#x201c;" horiz-adv-x="1081" 
d="M471 1559v-234c-49.333 -3.33301 -88 -19 -116 -47s-42 -65 -42 -111h172v-372h-409v338c0 116.667 36.167 214 108.5 292s167.833 122.667 286.5 134zM979 1559v-234c-48.667 -3.33301 -87.167 -19 -115.5 -47s-42.5 -65 -42.5 -111h172v-372h-409v338
c0 116.667 36.167 214 108.5 292s167.833 122.667 286.5 134z" />
    <glyph glyph-name="quotedblright" unicode="&#x201d;" horiz-adv-x="1071" 
d="M104 676l0.000976562 233c48.667 3.33301 87.167 19 115.5 47s42.5 65 42.5 111h-172v373h410v-338c0 -116.667 -36.333 -214 -109 -292s-168.334 -122.667 -287.001 -134zM612.001 676l0.000976562 233c49.333 3.33301 88 19 116 47s42 65 42 111h-172v373h410v-338
c0 -116.667 -36.333 -214 -109 -292s-168.334 -122.667 -287.001 -134z" />
    <glyph glyph-name="quotedblbase" unicode="&#x201e;" horiz-adv-x="1093" 
d="M102 -391l0.000976562 233c49.333 2.66699 88 18.167 116 46.5s42 65.5 42 111.5h-172v373h410v-338c0 -116.667 -36.333 -214 -109 -292s-168.334 -122.667 -287.001 -134zM610.001 -391l0.000976562 233c48.667 2.66699 87.167 18.167 115.5 46.5s42.5 65.5 42.5 111.5
h-172v373h410v-338c0 -116.667 -36.333 -214 -109 -292s-168.334 -122.667 -287.001 -134z" />
    <glyph glyph-name="ellipsis" unicode="&#x2026;" horiz-adv-x="1650" 
d="M88 0v373h410v-373h-410zM621 0v373h409v-373h-409zM1153 0v373h410v-373h-410z" />
    <glyph glyph-name="uni202F" unicode="&#x202f;" horiz-adv-x="344" 
 />
    <glyph glyph-name="guilsinglleft" unicode="&#x2039;" horiz-adv-x="897" 
d="M371 68l-322 460v37l322 461h481l-328 -479l328 -479h-481z" />
    <glyph glyph-name="guilsinglright" unicode="&#x203a;" horiz-adv-x="897" 
d="M526 68h-481l328 479l-328 479h481l322 -461v-37z" />
    <glyph glyph-name="uni205F" unicode="&#x205f;" horiz-adv-x="430" 
 />
    <glyph glyph-name="Euro" unicode="&#x20ac;" horiz-adv-x="1382" 
d="M1247 1020c-60.667 20.667 -118.667 31.001 -174 31.001c-108.667 0 -199 -34.333 -271 -103h427l-60 -227h-471c-1.33301 -16 -2 -28.333 -2 -37c0 -18.667 1 -36.334 3 -53.001h446l-60 -228l-278 1c68 -60.667 158 -91 270 -91c46.667 0 98 6.33301 154 19v-352
c-72 -14 -141.667 -21 -209 -21c-160.667 0 -300.5 38.5 -419.5 115.5s-203.833 183.833 -254.5 320.5h-301l62 236h191c-0.666992 11.333 -1 29 -1 53c0 4 0.166992 10.167 0.5 18.5s0.5 14.5 0.5 18.5h-249l62 237h231c50.667 142.667 136.667 254.5 258 335.5
s260 121.5 416 121.5c102.667 0 209 -19.667 319 -59z" />
    <glyph glyph-name="trademark" unicode="&#x2122;" horiz-adv-x="1779" 
d="M709 1212h-203v-534h-254v534h-203v222h660v-222zM1710 678h-244l-45 371l-176 -371h-86l-175 370l-42 -370h-248l111 756h244l153 -355l156 355h244z" />
    <glyph glyph-name="uni25FC" unicode="&#x25fc;" horiz-adv-x="1105" 
d="M0 1106h1106v-1106h-1106v1106z" />
    <glyph glyph-name="glyph1" horiz-adv-x="0" 
 />
    <glyph glyph-name="glyph2" horiz-adv-x="682" 
 />
    </font>
</defs>
</svg>
